<?xml version="1.0" encoding="utf-8"?>
<svg viewBox="39.9674 82.9899 722.8857 276.294" xmlns="http://www.w3.org/2000/svg">
  <defs>
    <radialGradient gradientUnits="userSpaceOnUse" cx="207.014" cy="220.042" r="159.967" id="gradient-0">
      <stop offset="0" style="stop-color: rgb(34.118% 34.118% 34.118%)"/>
      <stop offset="1" style="stop-color: rgb(20.812% 20.812% 20.812%)"/>
    </radialGradient>
  </defs>
  <g style="">
    <path d="M 79.917 90.343 C 83.947 85.766 91.457 85.947 97.531 85.399 C 99.968 85.179 102.38 86.219 104.687 87.035 C 109.982 88.908 119.479 90.312 124.479 95.442 C 127.136 98.168 128.654 106.62 128.905 107.185 C 130.668 111.149 133.425 114.646 134.967 118.701 C 139.859 131.565 136.888 146.554 141.759 159.426 C 143.427 163.834 151.195 161.803 154.84 164.791 C 156.148 165.864 158.309 163.389 158.961 161.828 C 168.214 139.681 175.832 116.885 184.265 94.413 C 185.858 90.167 189.756 86.72 193.782 84.743 C 196.393 83.461 199.474 83.432 202.376 83.233 C 215.385 82.342 225.246 83.35 230.429 95.804 C 239.375 117.3 244.696 140.31 254.994 161.193 C 255.154 161.517 260.426 154.083 261.737 151.947 C 273.001 133.599 283.461 114.733 295.528 96.903 C 302.906 86.001 309.68 86.046 321.253 89.542 C 324.127 90.41 326.595 93.862 328.064 96.281 C 334.187 106.361 340.236 116.487 346.431 126.523 C 357.473 144.414 367.458 154.789 373.254 174.639 C 374.468 178.797 372.966 183.299 372.985 187.63 C 373.07 207.212 373.04 226.794 373.076 246.376 C 373.107 262.961 373.149 279.547 373.187 296.132 C 373.188 296.447 373.388 294.893 373.388 295.208 C 373.402 308.28 373.759 321.844 373.253 334.794 C 373.237 335.205 372.077 342.748 370.698 344.31 C 361.202 355.07 361.043 356.995 348.091 357.173 C 322.907 357.519 297.719 357.049 272.533 356.987 C 267.827 356.975 266.509 351.894 259.545 351.951 C 254.042 351.996 249.387 356.884 243.893 357.199 C 218.967 358.626 193.927 358.401 168.992 357.136 C 163.78 356.872 159.087 350.113 154.211 351.974 C 125.821 362.81 93.541 358.852 63.197 357.211 C 48.657 356.425 47.7 349.894 41.643 338.907 C 38.059 332.407 41.339 323.06 41.341 315.373 C 41.352 274.897 41.371 234.42 41.385 193.944 C 41.386 190.635 40.79 185.129 41.348 183.549 C 43.952 176.169 48.502 169.628 52.097 162.677 C 53.774 159.434 61.291 162.679 62.495 159.232 C 67.248 145.626 67.266 130.805 69.662 116.593 C 70.281 112.922 73.895 110.378 75.19 106.887 C 76.992 102.03 75.832 94.982 79.917 90.343 Z" style="paint-order: fill; stroke-linecap: round; stroke-dasharray: 16; stroke-width: 5px; stroke-miterlimit: 1; stroke-linejoin: round; fill: rgb(255, 255, 255);"/>
    <path d="M 80.939 107.104 C 80.469 103.843 81.163 98.507 83.571 94.808 L 83.914 94.387 L 83.99 94.324 L 84.284 94.082 L 84.464 93.936 C 87.789 91.599 92.868 90.727 96.184 91.117 C 99.118 91.626 101.729 92.508 103.342 92.751 C 107.37 93.469 114.36 94.763 119.265 98.857 L 119.626 99.198 L 119.685 99.282 L 119.862 99.535 L 119.993 99.729 C 122.811 104.652 122.61 107.729 122.747 110.132 C 123.863 110.827 124.744 111.489 126.239 113.414 L 126.305 113.501 L 126.334 113.552 L 126.36 113.596 C 127.446 115.458 128.353 118.141 128.786 119.664 L 128.86 120.033 L 128.869 120.087 L 136.362 165.107 C 139.859 165.09 143.381 165.123 148.418 167.408 L 148.635 167.512 L 148.786 167.61 L 148.871 167.666 C 150.967 169.124 152.893 171.349 154.276 173.771 L 154.346 173.623 L 154.417 173.788 C 156.34 170.716 159.358 167.817 163.022 166.089 L 163.264 165.982 L 163.468 165.923 L 163.291 166.395 C 163.35 166.238 163.409 166.081 163.468 165.923 L 163.512 165.911 C 163.67 165.865 163.757 165.84 163.809 165.825 L 163.47 165.919 C 172.146 142.812 180.684 120.089 189.604 96.293 L 189.647 96.173 L 189.681 96.11 L 189.702 96.071 C 190.969 93.72 193.733 91.156 195.751 90.133 L 195.855 90.081 L 195.914 90.06 L 195.972 90.039 C 197.882 89.388 200.424 89.07 202.083 89.044 C 205.341 89.044 208.701 89.06 211.959 89.088 C 214.412 89.18 217.524 89.941 219.522 91.017 L 219.721 91.127 L 219.845 91.224 L 219.901 91.268 C 221.734 92.76 223.58 95.462 224.52 97.727 C 233.389 121.29 241.634 143.236 250.148 165.954 C 250.35 166.019 250.29 165.998 250.938 166.21 L 251.183 166.295 L 251.353 166.38 L 251.443 166.425 C 253.632 167.603 255.553 169.207 257.097 170.971 L 257.113 170.59 L 257.282 170.852 C 257.382 170.241 257.5 169.648 257.623 169.147 C 258.027 167.765 258.612 166.359 259.215 165.212 C 262.204 159.018 265.756 157.366 266.358 155.279 L 266.431 155.103 L 266.471 155.038 L 266.515 154.965 L 266.551 154.907 C 272.013 145.975 295.165 108.368 300.234 100.029 C 301.765 97.672 304.546 94.937 307.062 93.637 L 307.314 93.514 L 307.383 93.492 L 307.466 93.466 L 307.553 93.439 L 307.596 93.426 C 310.147 92.726 313.955 93.037 317.032 94.185 L 316.681 93.575 L 317.621 94.418 C 317.917 94.543 318.205 94.677 318.483 94.818 L 318.788 94.991 L 318.901 95.08 L 319.02 95.172 L 319.096 95.232 C 319.817 95.83 320.874 97.027 321.431 97.841 L 321.434 97.844 L 321.434 97.844 C 321.633 98.028 321.893 98.283 322.127 98.512 L 322.407 98.834 L 322.611 99.159 L 322.671 99.254 C 326.421 105.297 340.207 128.154 341.042 129.502 C 345.773 137.088 350.532 144.638 355.336 152.177 C 356.527 154.063 359.908 158.649 360.475 159.112 L 360.515 159.145 L 360.557 159.189 C 364.009 162.905 366.671 169.605 366.961 174.449 C 366.968 176.927 366.714 179.093 366.482 180.24 C 366.485 180.729 366.489 181.12 366.504 181.866 C 366.537 183.639 366.6 185.697 366.692 187.452 L 366.783 246.199 C 366.784 246.663 366.952 287.552 366.878 301.543 L 366.883 300.607 L 366.981 300.614 L 366.905 304.421 L 366.886 305.378 L 366.874 305.971 C 366.84 307.606 366.744 313.302 366.641 315.539 C 366.785 321.719 366.893 328.109 366.968 334.295 C 366.911 335.662 366.502 337.696 366.069 338.947 C 365.773 339.693 365.381 340.642 365.078 341.361 C 363.377 344.775 359.824 348.237 356.665 349.804 L 356.558 349.855 L 356.498 349.875 L 356.449 349.891 C 354.56 350.522 351.267 350.959 347.798 350.984 C 322.808 350.979 297.523 350.915 272.528 350.811 C 268.584 350.472 263.864 348.215 261.337 345.794 L 261.294 345.753 L 261.261 345.712 C 259.361 343.331 259.805 343.743 259.416 342.999 C 259.383 343.053 259.33 343.138 259.249 343.267 C 258.842 343.92 258.343 344.359 257.595 345.388 L 257.518 345.493 L 257.469 345.543 L 257.429 345.584 C 254.46 348.571 249.001 350.772 243.612 351.01 C 218.803 350.964 193.845 350.945 169.035 350.956 C 165.059 350.779 160.712 349.267 158.232 347.566 L 158.187 347.535 L 158.145 347.498 C 156.765 346.277 155.472 344.576 154.476 342.865 L 154.399 343.105 L 154.31 342.893 C 154.186 343.159 154.059 343.41 153.933 343.644 L 153.837 343.824 L 153.792 343.884 L 153.746 343.945 L 153.713 343.988 C 150.796 347.761 145.199 350.596 140.18 350.976 C 114.644 350.97 88.894 350.988 63.362 351.04 C 60.027 350.833 55.567 349.141 52.941 347.25 C 50.463 345.057 48.018 341.003 47.248 337.621 L 47.143 337.049 L 47.057 317.497 L 47.048 315.184 L 47.092 193.845 L 47.094 193.845 C 47.066 190.009 47.04 185.63 47.048 183.627 C 47.232 177.904 49.744 171.501 55.244 167.395 L 55.509 167.222 L 55.569 167.194 L 55.754 167.105 L 55.866 167.053 C 61.095 164.834 64.126 164.943 67.282 165.012 C 69.948 149.147 72.33 135.022 75.254 117.562 C 75.947 115.027 78.063 111.752 80.109 109.936 L 81.315 108.996 L 81.379 109.284 C 81.358 109.191 81.337 109.095 81.316 108.996 L 81.921 108.525 L 81.218 108.54 C 81.128 108.111 81.033 107.631 80.939 107.104 Z" style="paint-order: fill; stroke-linecap: round; stroke-width: 5px; stroke-miterlimit: 1; stroke-linejoin: round; fill: rgb(255, 255, 255); stroke-dasharray: 15; stroke: url('#gradient-0');"/>
  </g>
  <g style="">
    <g>
      <path d="M 116.707 115.392 C 117.806 117.818 112.941 115.323 109.747 115.269 C 101.298 115.127 92.971 116.394 84.548 115.719 C 83.095 115.603 87.937 114.957 88.33 113.553 C 89.609 108.982 85.573 102.697 88.914 99.325 C 92.013 96.198 97.781 98.878 102.116 99.642 C 106.347 100.387 111.407 100.638 114.317 103.799 C 116.678 106.364 115.268 112.217 116.707 115.392 Z" style="fill: rgb(170, 194, 230);"/>
      <path d="M 121.967 121.235 L 130.277 171.183 C 130.377 171.79 130.909 172.23 131.524 172.213 C 135.835 172.092 141.6 171.564 145.132 173.581 C 147.723 175.058 149.177 177.387 149.495 180.566 C 149.835 183.908 149.867 190.681 149.59 200.883 C 149.59 200.883 54.174 201.258 54.151 200.892 C 54.151 200.892 54.031 187.668 54.048 183.726 C 54.065 179.008 54.836 175.58 58.904 173.356 C 62.367 171.468 68.097 172.1 72.365 172.135 C 72.833 172.142 73.237 171.804 73.317 171.339 C 76.237 153.968 79.16 136.545 82.086 119.071 C 82.318 117.657 83.088 116.456 84.398 115.469 C 97.446 115.216 108.394 115.184 117.241 115.374 C 120.175 115.435 121.179 118.439 121.967 121.235 Z" style="fill: rgb(55, 98, 162);"/>
      <path d="M 54.092 200.845 L 149.59 200.883 L 149.59 315.175 L 54.048 315.184 L 54.092 200.845 Z" style="fill: rgb(170, 194, 230);"/>
      <path d="M 86.725 229.138 C 84.815 234.205 88.85 234.048 92.187 234.698 C 92.605 234.778 92.824 235.029 92.849 235.453 C 93.208 241.997 86.305 246.188 81.19 243.21 C 73.098 238.503 78.621 225.656 86.305 228.249 C 86.753 228.402 86.893 228.699 86.725 229.138 Z" style="fill: rgb(55, 98, 162);"/>
      <path d="M 124.934 231.407 C 125.159 232.952 126.437 234.127 127.995 234.22 L 130.784 234.395 C 131.348 234.428 131.77 234.923 131.713 235.484 C 131.34 239.524 129.677 242.136 126.718 243.317 C 114.387 248.25 109.801 228.086 124.227 227.479 C 124.912 227.451 125.411 228.118 125.182 228.756 C 124.884 229.623 124.801 230.508 124.934 231.407 Z" style="fill: rgb(55, 98, 162);"/>
      <path d="M 114.453 275.823 C 99.763 286.314 80.052 275.658 79.775 258.12 C 79.75 256.534 80.983 255.213 82.563 255.134 L 83.117 255.108 C 84.289 255.05 119.191 255.264 121.015 255.298 L 121.629 255.307 C 122.844 255.331 123.809 256.334 123.785 257.549 C 123.64 265.398 120.53 271.489 114.453 275.823 Z" style="fill: rgb(55, 98, 162);"/>
      <path d="M 149.59 315.175 C 149.786 320.947 149.786 326.729 149.59 332.523 C 149.475 335.946 148.932 338.439 147.962 340.002 C 146.318 342.657 143.723 343.982 140.18 343.976 C 114.644 343.97 89.107 343.993 63.57 344.045 C 59.095 344.053 54.749 340.755 54.143 336.418 L 54.057 317.469 L 54.048 315.184 L 149.59 315.175 Z" style="fill: rgb(55, 98, 162);"/>
    </g>
    <g style="">
      <path d="M 254.611 191.465 L 159.129 191.456 C 158.627 183.397 157.64 175.399 165.587 172.594 C 166.262 172.351 167.344 172.274 168.245 172.031 C 168.527 171.956 168.755 171.75 168.859 171.477 C 177.931 147.32 186.995 123.162 196.049 99.005 C 196.984 96.512 199.451 96.053 202.083 96.044 C 205.327 96.044 208.569 96.059 211.813 96.087 C 215.44 96.122 216.739 96.927 217.968 100.191 C 226.907 123.939 235.829 147.692 244.734 171.451 C 244.837 171.723 245.063 171.926 245.34 171.996 C 246.404 172.282 247.486 172.343 248.413 172.732 C 256.065 175.927 254.801 183.674 254.611 191.465 Z" style="fill: rgb(146, 0, 69);"/>
      <path d="M 254.611 191.583 C 254.611 191.583 254.644 325.94 254.393 325.9 C 254.4 325.9 190.431 325.944 159.129 324.886 L 159.129 191.456 L 254.611 191.583 Z" style="fill: rgb(230, 170, 204);"/>
      <path d="M 254.351 200.511 L 254.637 210.457 L 159.06 210.466 L 159.129 200.849 C 190.431 200.924 221.627 200.941 252.715 200.901 C 252.969 200.901 253.514 200.771 254.351 200.511 Z" style="fill: rgb(146, 0, 69);"/>
      <path d="M 221.88 263.574 C 222.342 262.541 222.74 260.446 223.075 257.289 C 223.197 256.121 224.174 255.227 225.352 255.203 L 225.88 255.194 C 227.865 255.148 228.849 256.121 228.832 258.112 C 228.745 266.012 225.415 272.081 218.842 276.316 C 203.849 285.986 185.809 275.901 184.753 258.51 C 184.606 256.086 187.263 254.233 189.341 255.644 C 191.202 256.908 190.795 261.167 191.574 263.245 C 197.028 277.788 215.596 277.554 221.88 263.574 Z" style="fill: rgb(146, 0, 69); stroke: rgb(146, 0, 69);"/>
      <path d="M 159.043 305.688 L 254.645 305.731 L 254.619 315.366 L 159.026 315.331 L 159.043 305.688 Z" style="fill: rgb(146, 0, 69);"/>
      <path d="M 159.051 324.671 L 254.559 324.671 C 254.68 327.043 254.721 329.508 254.68 332.064 C 254.55 339.691 251.953 344.027 243.626 344.01 C 218.81 343.964 193.995 343.947 169.18 343.958 C 157.389 343.958 158.714 332.748 159.051 324.671 Z" style="fill: rgb(146, 0, 69);"/>
      <path d="M 190.315 231.763 C 188.405 236.83 192.44 236.673 195.777 237.323 C 196.195 237.403 196.414 237.654 196.439 238.078 C 196.798 244.622 189.895 248.813 184.78 245.835 C 176.688 241.128 182.211 228.281 189.895 230.874 C 190.343 231.027 190.483 231.324 190.315 231.763 Z" style="fill: rgb(146, 0, 69);"/>
      <path d="M 228.524 234.032 C 228.749 235.577 230.027 236.752 231.585 236.845 L 234.374 237.02 C 234.938 237.053 235.36 237.548 235.303 238.109 C 234.93 242.149 233.267 244.761 230.308 245.942 C 217.977 250.875 213.391 230.711 227.817 230.104 C 228.502 230.076 229.001 230.743 228.772 231.381 C 228.474 232.248 228.391 233.133 228.524 234.032 Z" style="fill: rgb(146, 0, 69);"/>
    </g>
    <g>
      <path fill="#fcecdb" d="M 316.721 102.943 C 320.45 108.951 334.294 131.9 335.099 133.198 C 339.837 140.798 344.613 148.376 349.426 155.93 C 350.759 158.02 354.55 163.138 355.589 164.119 C 358.273 166.664 359.917 170.837 359.961 174.507 C 360.013 178.835 359.441 180.168 359.493 176.515 C 359.522 174.351 359.251 172.49 358.679 170.932 C 357.641 168.116 356.368 165.856 354.862 164.154 C 346.811 155.073 334.268 160.423 331.359 170.975 C 331.071 172.031 330.699 172.061 330.243 171.062 C 327.481 165.054 321.915 161.037 315.406 159.886 C 307.052 158.414 296.924 162.466 293.427 170.837 C 292.931 172.031 292.489 172.011 292.102 170.776 C 290.388 165.288 285.939 160.717 280.277 159.748 C 273.802 158.639 268.825 163.054 265.544 168.231 C 266.721 163.885 270.253 162.267 272.521 158.562 C 277.975 149.64 301.09 112.097 306.169 103.74 C 308.342 100.165 311.051 98.39 314.895 100.823 C 315.137 100.978 315.322 101.186 315.449 101.446 C 315.778 102.138 316.332 102.32 316.721 102.943 Z" style=""/>
      <path d="M 316.245 103.584 C 320.037 109.621 332.641 130.255 332.641 130.255 C 332.771 130.492 332.651 130.791 332.39 130.878 C 326.341 132.834 320.161 133.908 313.847 134.098 C 308.835 134.245 303.183 133.362 297.937 132.635 C 296.188 132.393 294.128 131.519 291.912 131.294 C 291.06 131.205 290.594 130.256 291.046 129.528 C 295.946 121.61 300.992 113.525 306.186 105.272 C 307.139 103.749 308.151 101.835 309.727 101.039 C 312.566 99.611 314.652 101.048 316.245 103.584 Z" style="fill: rgb(78, 58, 10);"/>
      <path d="M 359.692 187.466 L 359.783 246.214 C 359.783 246.214 360.034 305.718 359.811 305.874 C 359.589 306.03 334.689 305.936 318.918 305.92 C 303.147 305.904 284.813 305.864 263.917 305.8 C 263.946 283.533 263.965 261.423 263.975 239.47 C 263.985 217.517 263.985 195.722 263.977 174.083 C 263.974 173.027 264.103 172.011 264.364 171.036 C 264.626 170.061 265.019 169.126 265.544 168.231 C 267.184 165.643 269.249 163.245 271.713 161.632 C 274.176 160.02 277.039 159.194 280.277 159.748 C 283.108 160.233 285.636 161.618 287.67 163.567 C 289.704 165.517 291.245 168.032 292.102 170.776 C 292.295 171.394 292.503 171.707 292.724 171.717 C 292.944 171.728 293.179 171.434 293.427 170.837 C 295.175 166.652 298.582 163.546 302.595 161.67 C 306.608 159.795 311.229 159.15 315.406 159.886 C 318.66 160.462 321.679 161.754 324.23 163.653 C 326.78 165.552 328.862 168.058 330.243 171.062 C 330.471 171.562 330.678 171.804 330.864 171.789 C 331.05 171.775 331.215 171.503 331.359 170.975 C 332.813 165.699 336.676 161.724 341.182 160.202 C 345.688 158.681 350.836 159.614 354.862 164.154 C 355.615 165.005 356.31 165.996 356.946 167.125 C 357.582 168.255 358.16 169.524 358.679 170.932 C 358.965 171.711 359.176 172.566 359.311 173.496 C 359.447 174.427 359.507 175.433 359.493 176.515 C 359.467 178.342 359.471 180.168 359.504 181.993 C 359.537 183.818 359.6 185.643 359.692 187.466 Z" style="fill: rgb(255, 177, 0);"/>
      <path d="M 328.356 256.865 C 329.464 254.008 333.662 255.116 333.524 258.666 C 332.788 277.632 310.913 286.704 296.846 274.299 C 291.923 269.954 289.581 264.333 289.817 257.436 C 289.859 256.206 290.871 255.232 292.102 255.238 L 292.708 255.246 C 294.549 255.252 295.515 256.172 295.608 258.008 C 295.978 265.025 299.207 269.942 305.295 272.758 C 315.189 277.338 326.893 270.049 327.906 259.246 C 328.003 258.167 328.154 257.373 328.356 256.865 Z" style="fill: rgb(215, 49, 49);"/>
      <path fill="#fcecdb" d="M 263.917 305.8 C 305.71 305.928 358.508 305.81 359.874 305.825 C 359.835 307.744 359.711 315.428 359.589 316.005 C 359.548 316.199 263.865 315.175 263.865 315.175 C 263.034 311.43 263.051 308.305 263.917 305.8 Z" style=""/>
      <path d="M 263.865 315.175 L 359.156 315.167 C 359.34 315.167 359.47 315.251 359.545 315.418 C 359.586 315.499 359.617 315.577 359.64 315.651 C 359.785 321.827 359.894 328.002 359.969 334.176 C 359.975 334.944 359.839 335.674 359.562 336.366 C 359.279 337.082 358.994 337.784 358.705 338.47 C 357.713 340.859 356.16 342.475 354.048 343.318 C 352.94 343.763 350.857 343.984 347.798 343.984 C 322.815 343.979 297.83 343.924 272.841 343.82 C 267.604 343.794 264.194 339.691 264.09 334.652 C 263.945 328.022 263.871 321.529 263.865 315.175 Z" style="fill: rgb(215, 49, 49);"/>
      <path d="M 310.983 278.103 C 311.664 277.647 326.09 267.82 327.192 269.566 C 333.086 278.891 327.943 288.721 318.705 286.253 C 315.472 285.386 312.778 283.263 310.626 279.879 C 310.24 279.275 310.298 278.556 310.754 278.251 L 310.983 278.103 Z" style="transform-origin: 322.015px 279.333px; fill: rgb(215, 49, 49);"/>
      <path d="M 294.057 232.439 C 292.147 237.506 296.182 237.349 299.519 237.999 C 299.937 238.079 300.156 238.33 300.181 238.754 C 300.54 245.298 293.637 249.489 288.522 246.511 C 280.43 241.804 285.953 228.957 293.637 231.55 C 294.085 231.703 294.225 232 294.057 232.439 Z" style="fill: rgb(215, 49, 49);"/>
      <path d="M 332.266 234.708 C 332.491 236.253 333.769 237.428 335.327 237.521 L 338.116 237.696 C 338.68 237.729 339.102 238.224 339.045 238.785 C 338.672 242.825 337.009 245.437 334.05 246.618 C 321.719 251.551 317.133 231.387 331.559 230.78 C 332.244 230.752 332.743 231.419 332.514 232.057 C 332.216 232.924 332.133 233.809 332.266 234.708 Z" style="fill: rgb(215, 49, 49);"/>
    </g>
  </g>
  <g style="" transform="matrix(1, 0, 0, 1, -3.9361911654195296, -11.021393055839326)">
    <ellipse transform="matrix(0.905569, -0.424199, 0.424199, 0.905569, 599.635206, 214.51563)" rx="10.024" ry="9.774" style="fill: rgb(235, 235, 255);"/>
    <path d="M 523.15 228.557 C 524.283 228.652 525.403 228.676 526.571 228.366 C 538.228 225.279 554.271 229.403 555.916 243.515 C 556.119 245.22 556.798 246.554 556.798 248.295 C 556.735 259.841 556.735 271.084 556.798 282.026 C 556.805 283.417 555.697 284.556 554.307 284.588 C 546.286 284.779 538.669 286.317 538.657 275.101 C 538.649 266.583 538.645 258.068 538.645 249.558 C 538.645 248.044 538.037 246.686 537.942 245.088 C 537.918 244.7 537.772 244.366 537.501 244.087 C 535.586 242.093 533.254 240.997 530.505 240.798 C 528.502 240.654 526.631 241.56 524.545 241.763 C 523.353 241.886 522.447 242.889 522.447 244.087 L 522.435 281.942 C 522.437 283.363 521.31 284.526 519.897 284.565 C 513.043 284.791 504.616 286.603 504.592 276.734 C 504.56 257.108 504.56 237.484 504.592 217.865 C 504.592 215.712 504.727 213.869 504.998 212.335 C 505.069 211.922 505.299 211.655 505.689 211.536 C 509.372 210.416 514.807 210.237 518.025 211.393 C 523.913 213.503 522.507 222.847 522.459 227.806 C 522.458 228.199 522.76 228.526 523.15 228.557 Z" style="fill: rgb(235, 235, 255);"/>
    <path d="M 580.243 216.053 C 581.101 217.996 579.802 221.929 579.659 224.194 C 579.421 228.318 578.539 231.822 578.3 235.744 C 578.237 236.69 577.558 237.727 576.262 238.855 C 576.021 239.057 575.731 239.181 575.428 239.212 C 572.901 239.51 568.181 240.023 566.155 238.223 C 563.425 235.827 564.176 232.859 564.14 229.594 C 564.125 228.243 563.929 226.607 563.556 224.683 C 562.857 221.131 562.73 217.54 563.175 213.908 C 563.223 213.526 563.41 213.237 563.735 213.038 C 568.304 210.289 572.917 209.888 577.573 211.834 C 579.421 212.609 579.588 214.552 580.243 216.053 Z" style="fill: rgb(235, 235, 255);"/>
    <path d="M 641.007 228.509 C 643.939 229.057 645.846 227.615 648.17 227.436 C 663.773 226.197 675.43 236.089 677.277 251.537 C 678.731 263.599 674.965 278.2 662.807 283.087 C 652.032 287.413 637.384 287.282 626.966 280.238 C 623.811 278.101 622.219 275.089 622.187 271.203 C 622.028 251.783 621.957 232.364 621.972 212.942 C 621.972 212.546 622.159 212.28 622.532 212.144 C 623.927 211.631 624.714 210.869 626.203 210.737 C 629.648 210.416 635.107 210.416 637.825 212.311 C 641.4 214.802 640.28 224.075 640.447 227.853 C 640.462 228.219 640.649 228.437 641.007 228.509 Z M 641.317 242.562 L 640.864 242.919 C 640.53 243.181 640.363 243.527 640.363 243.956 L 640.387 270.238 C 640.386 270.864 640.872 271.381 641.496 271.418 C 642.33 271.465 643.073 271.732 643.725 272.216 C 644.05 272.455 644.412 272.598 644.809 272.645 C 650.403 273.306 654.484 271.406 657.05 266.948 C 659.982 261.859 659.887 251.477 657.074 246.352 C 655.08 242.721 651.809 240.857 647.265 240.762 C 645.81 240.738 644.833 241.453 643.903 241.584 C 642.815 241.727 641.952 242.054 641.317 242.562 Z" style="fill: rgb(235, 235, 255);"/>
    <path d="M 749.34 211.941 C 752.666 210.523 763.095 209.236 765.133 214.027 C 765.944 215.946 766.778 217.472 766.778 219.653 C 766.793 240.774 766.793 261.446 766.778 281.668 C 766.779 283.232 765.544 284.513 763.989 284.565 C 757.707 284.779 748.863 286.519 748.84 277.103 C 748.768 255.681 748.736 234.266 748.744 212.859 C 748.743 212.462 748.977 212.102 749.34 211.941 Z" style="fill: rgb(235, 235, 255);"/>
    <path d="M 489.193 233.181 C 483.09 229.57 477.441 227.913 469.729 229.88 C 457.071 233.086 455.986 249.88 459.192 259.904 C 460.583 264.259 463.594 267.496 468.227 269.618 C 475.951 273.146 481.97 271.358 489.312 268.283 C 490.836 267.639 492.589 268.443 493.102 270.023 C 496.309 279.857 490.969 284.124 481.612 285.447 C 459.466 288.593 438.894 277.556 438.799 253.015 C 438.775 247.949 438.691 243.074 439.943 238.485 C 443.542 225.386 453.519 216.912 466.773 214.766 C 474.365 213.526 483.078 214.099 489.813 218.306 C 495.534 221.882 495.069 229.152 490.254 233.098 C 489.954 233.349 489.528 233.383 489.193 233.181 Z" style="fill: rgb(235, 235, 255);"/>
    <path d="M 714.059 248.664 C 719.9 248.259 718.672 243.42 714.322 242.037 C 706.991 239.701 700.519 241.119 692.152 242.788 C 690.833 243.05 689.796 242.376 689.041 240.762 C 685.704 233.646 691.27 229.784 697.623 228.449 C 711.282 225.565 735.061 226.971 735.621 246.471 C 735.868 255.157 735.916 263.842 735.764 272.526 C 735.717 274.958 735.22 276.846 734.274 278.188 C 727.731 287.378 706.157 287.235 696.157 283.647 C 680.447 278.009 680.769 254.886 697.051 250.822 C 700.674 249.916 706.344 249.197 714.059 248.664 Z M 702.438 265.828 C 700.698 274.35 713.13 273.23 717.48 271.227 C 717.901 271.036 718.112 270.711 718.112 270.25 L 718.076 261.513 C 718.076 261.108 717.874 260.886 717.468 260.846 C 713.738 260.452 703.487 260.655 702.438 265.828 Z" style="fill: rgb(235, 235, 255);"/>
    <path d="M 606.406 284.529 C 600.375 284.97 590.804 286.329 590.661 277.163 C 590.454 263.75 590.371 250.341 590.41 236.936 C 590.41 234.775 590.541 232.971 590.804 231.524 C 590.875 231.136 591.098 230.874 591.471 230.738 C 596.143 229.117 608.241 228.318 608.182 235.839 C 608.173 237.15 608.178 238.454 608.194 239.749 C 608.432 254.179 608.555 268.336 608.563 282.217 C 608.565 283.428 607.625 284.436 606.406 284.529 Z" style="fill: rgb(235, 235, 255);"/>
  </g>
</svg>